<svg xmlns="http://www.w3.org/2000/svg" width="512" height="512" viewBox="0 0 512 512" version="1.1">
	<path d="M 95.949 22.826 C 84.998 25.685, 73.959 34.280, 69.163 43.681 C 63.652 54.483, 63.953 41.339, 64.238 258.548 L 64.500 458.500 67.701 465.259 C 73.784 478.099, 85.671 487.528, 98.886 489.995 C 102.346 490.640, 158.618 491, 256.189 491 C 425.847 491, 416.486 491.377, 427.702 484.100 C 442.275 474.647, 448.054 462.783, 447.934 442.568 L 447.868 431.500 446.458 436.735 C 442.444 451.640, 432.003 462.820, 418.185 467.008 C 411.581 469.009, 409.675 469.031, 260 468.767 L 108.500 468.500 103.764 466.147 C 95.640 462.109, 89.170 454.233, 86.479 445.104 C 85.685 442.410, 85.938 442.430, 94 445.684 C 98.269 447.407, 106.347 447.514, 251.500 447.780 C 353.540 447.967, 406.744 447.714, 411.238 447.023 C 420.566 445.587, 428.472 441.607, 435.039 435.039 C 444.030 426.049, 448.049 414.822, 447.940 399 L 447.896 392.500 445.590 398.704 C 441.378 410.040, 434.128 417.676, 422.220 423.317 L 415.500 426.500 259.500 426.808 C 103.429 427.117, 96.734 426.999, 90.723 423.836 C 89.020 422.940, 89.020 422.773, 90.723 419.852 C 93.287 415.455, 98.590 411.083, 104.954 408.121 L 110.500 405.540 262 405.520 L 413.500 405.500 419.239 403.182 C 431.415 398.265, 440.699 389.363, 445.143 378.344 L 447.500 372.500 447.766 216.500 C 447.951 107.688, 447.704 58.921, 446.951 55.281 C 444.531 43.588, 436.762 33.047, 425.849 26.652 C 415.966 20.860, 421.210 21.031, 255 21.075 C 114.407 21.112, 101.988 21.249, 95.949 22.826" stroke="none" fill="black" fill-rule="evenodd"/>
</svg>